<svg version="1.1" id="레이어_1" xmlns="http://www.w3.org/2000/svg" xmlns:xlink="http://www.w3.org/1999/xlink" x="0" y="0" viewBox="0 0 20 20" xml:space="preserve"><style/><defs><path id="SVGID_1_" d="M0 0h20v20H0z"/></defs><clipPath id="SVGID_00000169528474700771914580000005689795840635189663_"><use xlink:href="#SVGID_1_" overflow="visible"/></clipPath><g id="ic_rotation" clip-path="url(#SVGID_00000169528474700771914580000005689795840635189663_)"><path id="패스_57" d="M12.1 9.5c-.4.4-.4 1 0 1.4l2.1 2.1c.4.4 1 .4 1.4 0l2.1-2.1c.4-.4.4-1 0-1.4-.4-.4-1-.4-1.4 0l-.3.3C15.9 6 12.7 2.9 8.9 3 5.1 3.1 2.1 6.1 2 9.9 1.9 13.8 5 17 8.9 17c.9 0 1.8-.1 2.6-.5.5-.2.7-.8.5-1.3 0 0 0-.1-.1-.1-.2-.4-.8-.6-1.2-.4-1.5.6-3.3.4-4.6-.6-1-.7-1.7-1.6-2-2.8-.7-2.6.9-5.4 3.6-6.1 1.1-.3 2.2-.2 3.3.2 1.8.7 3 2.6 3 4.6l-.5-.5c-.4-.4-1-.4-1.4 0" fill="#888"/></g></svg>