<svg xmlns="http://www.w3.org/2000/svg" width="20" height="20"><defs><clipPath id="a"><path data-name="사각형 443" d="M0 0h20v20H0z" fill="none"/></clipPath></defs><path data-name="패스 57" d="M12.072 9.5a1 1 0 000 1.414l2.121 2.122a1 1 0 001.414 0l2.122-2.122A1 1 0 1016.315 9.5l-.324.323A7 7 0 008.85 3 7.093 7.093 0 002 9.887a7 7 0 009.519 6.645.994.994 0 00.473-1.432v-.005a.988.988 0 00-1.206-.423 5.064 5.064 0 01-4.645-.554 4.837 4.837 0 01-1.961-2.766 5.027 5.027 0 016.768-5.981A4.921 4.921 0 0114 10v.014l-.514-.514a1 1 0 00-1.414 0" clip-path="url(#a)"/></svg>1 6.768-5.981A4.921 4.921 0 0 1 14 10v.014l-.514-.514a1 1 0 0 0-1.414 0" style="clip-path:url(#a)"/>
</svg>
