<?xml version="1.0" encoding="utf-8"?>
<!-- Generator: Adobe Illustrator 26.2.0, SVG Export Plug-In . SVG Version: 6.00 Build 0)  -->
<svg version="1.1" id="레이어_1" xmlns="http://www.w3.org/2000/svg" xmlns:xlink="http://www.w3.org/1999/xlink" x="0px"
	 y="0px" viewBox="0 0 28 28" style="enable-background:new 0 0 28 28;" xml:space="preserve">
<style type="text/css">
	.st0{fill:#FFFFFF;}
	.st1{fill:#CCCCCC;}
	.st2{fill:#999999;}
</style>
<path class="st0" d="M4,0h20c2.2,0,4,1.8,4,4v20c0,2.2-1.8,4-4,4H4c-2.2,0-4-1.8-4-4V4C0,1.8,1.8,0,4,0z"/>
<path class="st1" d="M24,28H4c-2.2,0-4-1.8-4-4V4c0-2.2,1.8-4,4-4h20c2.2,0,4,1.8,4,4v20C28,26.2,26.2,28,24,28z M4,1
	C2.3,1,1,2.3,1,4v20c0,1.7,1.3,3,3,3h20c1.7,0,3-1.3,3-3V4c0-1.7-1.3-3-3-3H4z"/>
<path class="st2" d="M13,21v-6H7v-2h6V7h2v6h6v2h-6v6H13z"/>
</svg>
