<?xml version="1.0" encoding="utf-8"?>
<!-- Generator: Adobe Illustrator 26.2.0, SVG Export Plug-In . SVG Version: 6.00 Build 0)  -->
<svg version="1.1" id="레이어_1" xmlns="http://www.w3.org/2000/svg" xmlns:xlink="http://www.w3.org/1999/xlink" x="0px"
	 y="0px" viewBox="0 0 20 20" style="enable-background:new 0 0 20 20;" xml:space="preserve">
<style type="text/css">
	.st0{clip-path:url(#SVGID_00000123402892804194029490000001741379935918809216_);}
	.st1{fill:#888888;}
</style>
<g>
	<defs>
		<rect id="SVGID_1_" width="20" height="20"/>
	</defs>
	<clipPath id="SVGID_00000169528474700771914580000005689795840635189663_">
		<use xlink:href="#SVGID_1_"  style="overflow:visible;"/>
	</clipPath>
	<g id="ic_rotation" style="clip-path:url(#SVGID_00000169528474700771914580000005689795840635189663_);">
		<path id="패스_57" class="st1" d="M12.1,9.5c-0.4,0.4-0.4,1,0,1.4l2.1,2.1c0.4,0.4,1,0.4,1.4,0l2.1-2.1c0.4-0.4,0.4-1,0-1.4
			c-0.4-0.4-1-0.4-1.4,0c0,0,0,0,0,0L16,9.8C15.9,6,12.7,2.9,8.9,3C5.1,3.1,2.1,6.1,2,9.9c-0.1,3.9,3,7.1,6.9,7.1
			c0.9,0,1.8-0.1,2.6-0.5c0.5-0.2,0.7-0.8,0.5-1.3c0,0,0-0.1-0.1-0.1v0c-0.2-0.4-0.8-0.6-1.2-0.4c-1.5,0.6-3.3,0.4-4.6-0.6
			c-1-0.7-1.7-1.6-2-2.8C3.4,8.7,5,5.9,7.7,5.2c1.1-0.3,2.2-0.2,3.3,0.2C12.8,6.1,14,8,14,10v0l-0.5-0.5C13.1,9.1,12.5,9.1,12.1,9.5
			"/>
	</g>
</g>
</svg>
